<?xml version="1.0" standalone="no"?><!DOCTYPE svg PUBLIC "-//W3C//DTD SVG 1.1//EN" "http://www.w3.org/Graphics/SVG/1.1/DTD/svg11.dtd"><svg t="1621390139027" class="icon" viewBox="0 0 1024 1024" version="1.1" xmlns="http://www.w3.org/2000/svg" p-id="3493" xmlns:xlink="http://www.w3.org/1999/xlink" width="200" height="200"><defs><style type="text/css"></style></defs><path d="M945.1 542.7c-18.6 69.2-111.4 302.9-115.4 312.8-0.4 1-0.8 1.9-1.3 2.8-18.3 31.7-52 51.8-88.8 53.3-1.4 0.3-2.8 0.4-4.3 0.4H412.9c-11.9 0-21.4-9.6-21.4-21.4 0-11.9 9.6-21.5 21.4-21.5h318.5c1.2-0.2 2.5-0.4 3.8-0.4 23 0 43.5-11.5 55.1-30.6 8.3-20.8 96.1-242.6 113.2-306.6 15.3-57.2-18.8-116.2-76-131.6-8-2.1-16.9-3.1-27.8-3.1l-129-0.5c-7.1 0-13.6-3.5-17.7-9.3-4-5.8-4.9-13.2-2.3-19.9 12.6-33 20-110.4 20-207.2 0-35.6-28.9-64.5-64.4-64.5-35.6 0-64.5 28.9-64.5 64.5v21.4c0 142.3-115.6 257.9-257.9 257.9-11.9 0-21.4-9.6-21.4-21.5 0-11.8 9.6-21.5 21.4-21.5 118.5 0 214.9-96.4 214.9-214.9v-21.4c0-59.3 48.3-107.5 107.5-107.5s107.4 48.2 107.4 107.5c0 51-2 136.5-14.6 193.5l100.6 0.4c14.7 0 27 1.5 38.8 4.6 80.3 21.5 128.1 104.1 106.6 184.3zM284 912H176.6c-47.4 0-86-38.5-86-86V482.2c0-47.4 38.5-86 86-86H284c11.9 0 21.5 9.7 21.5 21.5v472.8c0 11.9-9.7 21.5-21.5 21.5z m-21.5-472.8h-86c-23.7 0-43 19.3-43 43V826c0 23.7 19.3 43 43 43h86V439.2z" p-id="3494"></path></svg>